<?xml version="1.0" encoding="utf-8"?>
<!-- Generator: Adobe Illustrator 17.0.0, SVG Export Plug-In . SVG Version: 6.00 Build 0)  -->
<!DOCTYPE svg PUBLIC "-//W3C//DTD SVG 1.1//EN" "http://www.w3.org/Graphics/SVG/1.1/DTD/svg11.dtd">
<svg version="1.1" id="Layer_1" xmlns="http://www.w3.org/2000/svg" xmlns:xlink="http://www.w3.org/1999/xlink" x="0px" y="0px"
	 width="511px" height="511px" viewBox="0 0 511 511" enable-background="new 0 0 511 511" xml:space="preserve">
<path fill="#0277BD" d="M509.668,186.017c-3.345-10.347-12.523-17.696-23.381-18.675L338.799,153.95L280.478,17.444
	c-4.3-10.004-14.094-16.48-24.975-16.48c-10.881,0-20.675,6.476-24.975,16.503L172.206,153.95L24.694,167.342
	c-10.838,1.002-19.993,8.328-23.357,18.675c-3.365,10.347-0.257,21.696,7.942,28.851l111.484,97.772L87.889,457.45
	c-2.406,10.647,1.727,21.654,10.562,28.04c4.749,3.431,10.304,5.177,15.907,5.177c4.831,0,9.622-1.302,13.922-3.875l127.223-76.037
	l127.176,76.037c9.306,5.599,21.038,5.088,29.853-1.302c8.838-6.406,12.967-17.416,10.562-28.04l-32.874-144.81l111.484-97.753
	C509.902,207.714,513.033,196.384,509.668,186.017z"/>
</svg>
